<?xml version="1.0" encoding="utf-8"?>
<!-- Generator: Adobe Illustrator 16.0.0, SVG Export Plug-In . SVG Version: 6.00 Build 0)  -->
<!DOCTYPE svg PUBLIC "-//W3C//DTD SVG 1.1//EN" "http://www.w3.org/Graphics/SVG/1.1/DTD/svg11.dtd">
<svg version="1.1" id="Layer_1" xmlns="http://www.w3.org/2000/svg" xmlns:xlink="http://www.w3.org/1999/xlink" x="0px" y="0px"
	 width="566.93px" height="425.2px" viewBox="0 0 566.93 425.2" enable-background="new 0 0 566.93 425.2" xml:space="preserve">
<path fill-rule="evenodd" clip-rule="evenodd" fill="#EDA04B" d="M240.585,208.6c-0.178-0.176-0.396-0.387-0.607-0.602
	c-0.385-0.389-0.387-0.95-0.002-1.338c0.559-0.561,1.117-1.119,1.678-1.676c0.396-0.395,0.955-0.396,1.354-0.003
	c0.211,0.207,0.418,0.419,0.623,0.623c0.428-0.183,0.848-0.364,1.27-0.537c0.15-0.062,0.316-0.093,0.465-0.157
	c0.055-0.023,0.115-0.104,0.117-0.16c0.014-0.269,0.006-0.539,0.006-0.809c0.006-0.496,0.35-0.909,0.842-0.924
	c0.854-0.027,1.711-0.025,2.565-0.004c0.463,0.012,0.793,0.365,0.826,0.826c0.023,0.287,0.016,0.578,0.01,0.868
	c-0.002,0.11,0.041,0.151,0.143,0.192c0.525,0.204,1.047,0.414,1.564,0.639c0.115,0.051,0.174,0.032,0.25-0.049
	c0.176-0.186,0.361-0.365,0.543-0.545c0.371-0.365,0.941-0.371,1.311-0.006c0.578,0.568,1.15,1.141,1.719,1.717
	c0.357,0.361,0.357,0.932,0.006,1.299c-0.182,0.191-0.367,0.377-0.559,0.559c-0.082,0.078-0.098,0.139-0.049,0.251
	c0.223,0.517,0.432,1.04,0.637,1.563c0.041,0.103,0.086,0.145,0.195,0.141c0.25-0.008,0.5-0.005,0.75-0.002
	c0.592,0.008,1.033,0.452,1.035,1.041c0.004,0.756,0.004,1.513,0,2.27c-0.002,0.579-0.402,0.971-0.984,0.973
	c-0.289,0-0.578,0-0.879,0c-0.025,0.08-0.041,0.154-0.072,0.226c-0.197,0.485-0.389,0.972-0.604,1.45
	c-0.059,0.131-0.053,0.205,0.053,0.299c0.174,0.159,0.336,0.333,0.504,0.501c0.402,0.405,0.404,0.96,0,1.368
	c-0.549,0.551-1.098,1.1-1.648,1.647c-0.418,0.413-0.967,0.412-1.383,0.001c-0.211-0.209-0.418-0.419-0.584-0.587
	c-0.619,0.233-1.201,0.45-1.779,0.676c-0.049,0.019-0.1,0.101-0.102,0.154c-0.01,0.27-0.002,0.54-0.004,0.81
	c-0.004,0.51-0.389,0.926-0.9,0.935c-0.822,0.013-1.645,0.012-2.467,0.001c-0.488-0.007-0.863-0.361-0.902-0.848
	c-0.023-0.294-0.006-0.591-0.02-0.887c-0.002-0.057-0.047-0.143-0.094-0.16c-0.576-0.227-1.158-0.442-1.781-0.678
	c-0.15,0.154-0.342,0.352-0.539,0.547c-0.463,0.458-0.994,0.467-1.459,0.012c-0.537-0.525-1.068-1.055-1.592-1.592
	c-0.447-0.459-0.436-0.992,0.012-1.445c0.166-0.169,0.34-0.332,0.5-0.507c0.037-0.04,0.063-0.13,0.043-0.177
	c-0.24-0.572-0.488-1.143-0.75-1.746c-0.25,0-0.551,0-0.854,0c-0.549-0.002-0.963-0.41-0.965-0.957c-0.002-0.789-0.002-1.58,0-2.369
	c0.002-0.556,0.387-0.936,0.947-0.938c0.256-0.002,0.514,0.005,0.77-0.005c0.057-0.003,0.141-0.046,0.16-0.091
	C240.132,209.807,240.351,209.219,240.585,208.6z"/>
<path fill-rule="evenodd" clip-rule="evenodd" fill="#FFFFFF" d="M254.139,212.57c-0.004-3.593-2.939-6.537-6.516-6.534
	c-3.66,0.002-6.568,2.929-6.564,6.605c0.004,3.558,2.984,6.491,6.576,6.474C251.225,219.099,254.143,216.162,254.139,212.57z"/>
</svg>
